# xmcd
#
# Track frame offsets: 
#        150
#        11726
#        21716
#        33700
#        42745
#        55650
#        67983
#        78718
#        87271
#        99149
#
# Disc length: 1486 seconds
#
# Revision: 2
# Processed by: cddbd v1.5.2PL0 Copyright (c) Steve Scherf et al.
# Submitted via: ExactAudioCopy v1.3
#
DISCID=8205cc0a
DTITLE=Porter Wagoner - Heartwarming Songs
DYEAR=1990
DGENRE=Country
TTITLE0=Angel Band
TTITLE1=Baby Linda
TTITLE2=Crumbs From Another Man's Table
TTITLE3=Can You Tell Me
TTITLE4=When The One You Love Says I Love You
TTITLE5=Devil's Alley
TTITLE6=I Can't Be Your Man
TTITLE7=I See You
TTITLE8=I Know I'm Gonna Be Loved Tonight
TTITLE9=He Really Must Have Loved You
EXTD=
EXTT0=
EXTT1=
EXTT2=
EXTT3=
EXTT4=
EXTT5=
EXTT6=
EXTT7=
EXTT8=
EXTT9=
PLAYORDER=
